<?xml version="1.0" encoding="UTF-8"?> <svg xmlns="http://www.w3.org/2000/svg" xmlns:xlink="http://www.w3.org/1999/xlink" version="1.1" id="katman_1" x="0px" y="0px" viewBox="0 0 140 53.6" style="enable-background:new 0 0 140 53.6;" xml:space="preserve"> <style type="text/css"> .st0{fill:#EDB747;} </style> <g> <g> <path d="M10,38.5c-1.7-0.8-3-1.8-4-3.2c-1-1.3-1.5-2.8-1.6-4.5h5.9c0.1,1.2,0.7,2.1,1.7,2.9c1,0.8,2.3,1.2,3.8,1.2 c1.6,0,2.8-0.3,3.7-0.9c0.9-0.6,1.3-1.4,1.3-2.4c0-1-0.5-1.8-1.5-2.3c-1-0.5-2.5-1-4.6-1.6c-2-0.6-3.7-1.1-5-1.6 c-1.3-0.5-2.4-1.3-3.3-2.4c-0.9-1.1-1.4-2.5-1.4-4.3c0-1.5,0.4-2.8,1.3-4c0.9-1.2,2.1-2.2,3.7-2.9c1.6-0.7,3.4-1,5.5-1 c3.1,0,5.6,0.8,7.5,2.4c1.9,1.6,2.9,3.7,3,6.4h-5.7c-0.1-1.2-0.6-2.2-1.5-2.9c-0.9-0.7-2.1-1.1-3.6-1.1c-1.5,0-2.6,0.3-3.4,0.8 c-0.8,0.6-1.2,1.3-1.2,2.2c0,0.7,0.3,1.3,0.8,1.8c0.5,0.5,1.2,0.9,1.9,1.2c0.8,0.3,1.9,0.6,3.4,1.1c2,0.5,3.6,1.1,4.9,1.6 c1.3,0.5,2.4,1.3,3.3,2.4c0.9,1.1,1.4,2.5,1.4,4.2c0,1.6-0.4,2.9-1.3,4.2c-0.9,1.2-2.1,2.2-3.6,2.9c-1.6,0.7-3.4,1-5.5,1 C13.6,39.6,11.7,39.2,10,38.5z"></path> <path d="M31.3,39.2V18.1h-4.1v-5.5h4.1V5.9l6.2-1.9v8.6h4.1v5.5h-4.1v21.1H31.3z"></path> <path d="M63.1,39.2v-3.3c-0.7,1.3-1.8,2.3-3.1,2.9c-1.3,0.6-3.1,0.9-5.2,0.9c-3.9,0-7.2-1.3-9.9-4c-2.6-2.7-4-6-4-10 c0-1.9,0.3-3.6,1-5.3c0.7-1.7,1.6-3.2,2.8-4.4c1.3-1.4,2.8-2.4,4.4-3.1c1.6-0.7,3.4-1,5.4-1c1.9,0,3.6,0.3,5,1 c1.4,0.6,2.5,1.6,3.4,2.9v-3.2h6.1v26.6H63.1z M47.3,25.7c0,2.2,0.7,4.1,2.2,5.6c1.5,1.5,3.3,2.3,5.5,2.3c2,0,3.7-0.8,5.2-2.3 c1.5-1.5,2.2-3.3,2.2-5.3c0-2.2-0.7-4-2.2-5.6c-1.5-1.6-3.2-2.3-5.2-2.3c-2.1,0-3.9,0.7-5.4,2.2C48.1,21.7,47.3,23.5,47.3,25.7z"></path> <path d="M107.3,27.8c0.2,1.9,1,3.4,2.3,4.5c1.3,1.1,3,1.7,5.1,1.7c1.4,0,2.6-0.3,3.7-0.9c1.1-0.6,2-1.4,2.6-2.4h6.7 c-1.1,2.9-2.8,5.2-5.1,6.8c-2.3,1.6-4.9,2.4-7.8,2.4c-2,0-3.8-0.4-5.5-1.1c-1.7-0.7-3.2-1.7-4.5-3.1c-1.3-1.3-2.2-2.8-2.9-4.5 c-0.7-1.7-1-3.5-1-5.3c0-1.9,0.3-3.6,1-5.2c0.6-1.6,1.6-3.1,2.8-4.4c1.4-1.4,2.9-2.5,4.6-3.3c1.7-0.8,3.5-1.2,5.3-1.2 c2.3,0,4.5,0.5,6.5,1.6c2,1,3.7,2.5,5.1,4.4c0.9,1.1,1.5,2.4,1.9,3.8c0.4,1.4,0.6,3.1,0.6,4.9c0,0.1,0,0.4,0,0.7 c0,0.3,0,0.5,0,0.7H107.3z M122,22.9c-0.5-1.8-1.4-3.1-2.7-4.1c-1.3-0.9-2.8-1.4-4.7-1.4c-1.6,0-3.1,0.5-4.4,1.5 c-1.3,1-2.2,2.3-2.6,3.9H122z"></path> <g> <g> <path d="M93.8,10.3c1.7,1.3,3.2,2.4,4.8,3.7c-0.9,1.2-1.8,2.3-2.7,3.5c1.5,2.2,2.4,4.5,2.6,7.1c0.6,6.8-4.1,13.2-10.8,14.5 c-7.6,1.5-15.1-3.4-16.4-10.9c-1.3-7.9,3.9-15.1,11.8-16.1c2.5-0.3,4.9,0,7.2,1c0.6,0.3,1,0.3,1.5-0.4 C92.4,11.9,93.1,11.2,93.8,10.3z M92.5,25.8c0-4.2-3.3-7.6-7.5-7.7c-4.2,0-7.6,3.3-7.7,7.6c0,4.2,3.3,7.7,7.5,7.7 C89,33.4,92.5,29.9,92.5,25.8z"></path> <path d="M71.5,41.2c1.8,0,3.7,0,5.5,0c0.3,0,0.7,0.6,0.8,0.9c2.1,4.5,7.4,6.1,11.3,3.2c1.1-0.8,2-2.1,2.7-3.3 c0.4-0.6,0.7-0.9,1.4-0.9c1.7,0,3.3,0,4.9,0c0.2,5.6-6.3,11.6-12.6,11.7C78.3,53,71.6,47.5,71.5,41.2z"></path> </g> </g> <circle class="st0" cx="134.4" cy="36.1" r="3.9"></circle> </g> </g> </svg> 